<?xml version="1.0" encoding="UTF-8" standalone="no"?>
<!-- Created with Inkscape (http://www.inkscape.org/) -->

<svg
   width="2.5904601mm"
   height="2.5909801mm"
   viewBox="0 0 2.5904601 2.5909801"
   version="1.1"
   id="svg5"
   inkscape:version="1.1.1 (3bf5ae0d25, 2021-09-20)"
   sodipodi:docname="knob.svg"
   xmlns:inkscape="http://www.inkscape.org/namespaces/inkscape"
   xmlns:sodipodi="http://sodipodi.sourceforge.net/DTD/sodipodi-0.dtd"
   xmlns="http://www.w3.org/2000/svg"
   xmlns:svg="http://www.w3.org/2000/svg">
  <sodipodi:namedview
     id="namedview7"
     pagecolor="#ffffff"
     bordercolor="#666666"
     borderopacity="1.0"
     inkscape:pageshadow="2"
     inkscape:pageopacity="0.0"
     inkscape:pagecheckerboard="0"
     inkscape:document-units="mm"
     showgrid="true"
     inkscape:snap-intersection-paths="false"
     inkscape:snap-center="true"
     inkscape:zoom="69.745648"
     inkscape:cx="4.2081479"
     inkscape:cy="4.9465452"
     inkscape:window-width="1920"
     inkscape:window-height="1063"
     inkscape:window-x="0"
     inkscape:window-y="0"
     inkscape:window-maximized="1"
     inkscape:current-layer="layer1"
     fit-margin-top="0"
     fit-margin-left="0"
     fit-margin-right="0"
     fit-margin-bottom="0">
    <inkscape:grid
       type="xygrid"
       id="grid83"
       originx="-120.4131"
       originy="-125.43993" />
  </sodipodi:namedview>
  <defs
     id="defs2" />
  <g
     inkscape:label="Layer 1"
     inkscape:groupmode="layer"
     id="layer1"
     transform="translate(-120.4131,-125.43993)">
    <path
       id="path107"
       style="fill:#000000;stroke-width:0.264583"
       d="m 121.44398,125.43995 a 1.3229163,1.3229163 0 0 0 -0.1571,0.0434 0.39281814,0.39281814 0 0 1 -0.17724,0.21859 0.39281814,0.39281814 0 0 1 -0.27699,0.0439 1.3229163,1.3229163 0 0 0 -0.11576,0.11731 0.39281814,0.39281814 0 0 1 -0.0444,0.27595 0.39281814,0.39281814 0 0 1 -0.21549,0.1757 1.3229163,1.3229163 0 0 0 -0.0419,0.16278 0.39281817,0.39281822 0 0 1 0.0972,0.2589 0.39281817,0.39281822 0 0 1 -0.0992,0.26045 1.3229163,1.3229163 0 0 0 0.0434,0.16071 0.39281814,0.39281814 0 0 1 0.216,0.17622 0.39281814,0.39281814 0 0 1 0.0439,0.2775 1.3229163,1.3229163 0 0 0 0.1173,0.11524 0.39281822,0.39281817 30 0 1 0.27596,0.0444 0.39281822,0.39281817 30 0 1 0.17621,0.21601 1.3229163,1.3229163 0 0 0 0.16175,0.0439 0.39395733,0.39395733 0 0 1 0.25941,-0.10076 0.39395733,0.39395733 0 0 1 0.262,0.10025 1.3229163,1.3229163 0 0 0 0.15968,-0.0439 0.39281814,0.39281814 0 0 1 0.1757,-0.21549 0.39281814,0.39281814 0 0 1 0.27544,-0.0444 1.3229163,1.3229163 0 0 0 0.11782,-0.11575 0.39281814,0.39281814 0 0 1 0.0439,-0.27699 0.39281814,0.39281814 0 0 1 0.21859,-0.17673 1.3229163,1.3229163 0 0 0 0.0434,-0.1571 0.39281814,0.39281814 0 0 1 -0.10181,-0.26355 0.39281814,0.39281814 0 0 1 0.10181,-0.26355 1.3229163,1.3229163 0 0 0 -0.0429,-0.15916 0.39281814,0.39281814 0 0 1 -0.2191,-0.17467 0.39281814,0.39281814 0 0 1 -0.0419,-0.27647 1.3229163,1.3229163 0 0 0 -0.11679,-0.1173 0.39281814,0.39281814 0 0 1 -0.27854,-0.0434 0.39281814,0.39281814 0 0 1 -0.17466,-0.21911 1.3229163,1.3229163 0 0 0 -0.15968,-0.0429 0.39281814,0.39281814 0 0 1 -0.26304,0.1018 0.39281814,0.39281814 0 0 1 -0.26303,-0.1018 z" />
  </g>
</svg>
