<?xml version="1.0" encoding="UTF-8"?>
<svg width="2.5905mm" height="2.591mm" version="1.1" viewBox="0 0 2.5905 2.591" xmlns="http://www.w3.org/2000/svg">
<g transform="translate(-120.41 -125.44)">
<path d="m121.44 125.44a1.3229 1.3229 0 0 0-0.1571 0.0434 0.39282 0.39282 0 0 1-0.17724 0.21859 0.39282 0.39282 0 0 1-0.27699 0.0439 1.3229 1.3229 0 0 0-0.11576 0.11731 0.39282 0.39282 0 0 1-0.0444 0.27595 0.39282 0.39282 0 0 1-0.21549 0.1757 1.3229 1.3229 0 0 0-0.0419 0.16278 0.39282 0.39282 0 0 1 0.0972 0.2589 0.39282 0.39282 0 0 1-0.0992 0.26045 1.3229 1.3229 0 0 0 0.0434 0.16071 0.39282 0.39282 0 0 1 0.216 0.17622 0.39282 0.39282 0 0 1 0.0439 0.2775 1.3229 1.3229 0 0 0 0.1173 0.11524 0.39282 0.39282 30 0 1 0.27596 0.0444 0.39282 0.39282 30 0 1 0.17621 0.21601 1.3229 1.3229 0 0 0 0.16175 0.0439 0.39396 0.39396 0 0 1 0.25941-0.10076 0.39396 0.39396 0 0 1 0.262 0.10025 1.3229 1.3229 0 0 0 0.15968-0.0439 0.39282 0.39282 0 0 1 0.1757-0.21549 0.39282 0.39282 0 0 1 0.27544-0.0444 1.3229 1.3229 0 0 0 0.11782-0.11575 0.39282 0.39282 0 0 1 0.0439-0.27699 0.39282 0.39282 0 0 1 0.21859-0.17673 1.3229 1.3229 0 0 0 0.0434-0.1571 0.39282 0.39282 0 0 1-0.10181-0.26355 0.39282 0.39282 0 0 1 0.10181-0.26355 1.3229 1.3229 0 0 0-0.0429-0.15916 0.39282 0.39282 0 0 1-0.2191-0.17467 0.39282 0.39282 0 0 1-0.0419-0.27647 1.3229 1.3229 0 0 0-0.11679-0.1173 0.39282 0.39282 0 0 1-0.27854-0.0434 0.39282 0.39282 0 0 1-0.17466-0.21911 1.3229 1.3229 0 0 0-0.15968-0.0429 0.39282 0.39282 0 0 1-0.26304 0.1018 0.39282 0.39282 0 0 1-0.26303-0.1018z" stroke-width=".26458"/>
</g>
</svg>
